REM MD5 a9591b23a73cdbd9e9c6a939dc4d1cfe
FILE "Backgammon 2000 (Japan).bin" BINARY
  TRACK 01 MODE2/2352
    INDEX 01 00:00:00
  TRACK 02 AUDIO
    INDEX 00 00:11:05
    INDEX 01 00:13:05
  TRACK 03 AUDIO
    INDEX 00 06:37:14
    INDEX 01 06:39:14
  TRACK 04 AUDIO
    INDEX 00 14:10:68
    INDEX 01 14:12:68
REM LEADOUT 19:20:17
